<svg version="1.1" id="Layer_1" xmlns="http://www.w3.org/2000/svg" xmlns:xlink="http://www.w3.org/1999/xlink" x="0px" y="0px"
	 width="100%" viewBox="-24 -16 1020 436" enable-background="new -24 -16 1020 436" xml:space="preserve">
<path fill="#393230" opacity="1.000000" stroke="none"
	d="
M193.944244,136.890762
	C194.546371,136.134628 195.148499,135.378494 195.750626,134.622360
	C195.605087,134.227829 195.459534,133.833282 195.313980,133.438751
	C191.740341,134.973297 187.980347,136.184753 184.634598,138.114426
	C178.924301,141.407822 173.528595,145.241776 167.891800,148.669510
	C164.981079,150.439499 164.247009,152.465302 165.364548,155.749557
	C166.416229,158.840256 166.743469,162.176651 167.400131,165.402786
	C168.034760,168.520660 169.386993,169.395828 172.663208,168.019821
	C186.744080,162.105942 200.879059,156.305679 215.155777,150.889679
	C217.321274,150.068176 220.794861,150.803619 222.792191,152.130432
	C224.014877,152.942657 224.484009,156.651794 223.730072,158.377914
	C220.089508,166.712967 216.658905,175.291840 211.773331,182.897430
	C203.159775,196.306595 193.690613,209.179794 184.242142,222.029160
	C181.939194,225.161041 178.398163,227.419159 175.293579,229.913727
	C172.649643,232.038116 170.060730,231.267517 168.522110,228.594101
	C167.171875,226.247986 167.277786,224.246384 170.655060,222.776978
	C172.976913,221.766785 174.775894,219.067230 176.296906,216.782196
	C187.067291,200.601746 197.762238,184.370041 208.324280,168.053085
	C209.906311,165.609055 210.667725,162.633850 211.808762,159.904373
	C211.333969,159.384659 210.859177,158.864944 210.384399,158.345230
	C206.117615,159.716721 201.843689,161.066467 197.585541,162.464264
	C188.932129,165.304932 180.314606,168.258804 171.626099,170.987015
	C167.842377,172.175125 167.880234,174.906830 167.557800,179.011261
	C170.158813,177.832428 172.402390,177.507690 173.452118,176.214127
	C177.048599,171.782257 180.042984,175.132111 182.912964,176.831772
	C183.568771,177.220169 183.578156,180.488159 182.768799,181.259430
	C178.829285,185.013550 174.367493,188.216171 170.382904,191.927811
	C168.177780,193.981857 165.336716,196.445663 164.886169,199.084030
	C163.584549,206.706253 162.872528,214.509674 162.856369,222.243881
	C162.844727,227.813766 161.646957,229.736771 155.644760,230.402069
	C152.549057,230.745209 149.576477,232.111237 146.482422,232.585220
	C144.072784,232.954346 141.561371,232.659088 137.913925,232.659088
	C139.362701,231.086304 139.615356,230.571381 140.007614,230.421265
	C150.444336,226.427002 157.237244,215.954514 156.271530,204.435043
	C156.167572,203.195038 153.094498,201.288177 151.406799,201.296677
	C148.353561,201.312012 145.306442,202.539200 142.026077,203.314957
	C142.648895,206.753998 143.343887,209.980896 143.798630,213.241302
	C144.538162,218.543701 142.497070,222.158829 138.137054,223.620529
	C134.624741,224.798019 130.511032,222.754425 130.104248,219.104309
	C128.956192,208.802505 132.573883,199.371506 135.889587,189.265106
	C138.060287,196.457108 141.847260,194.275757 145.746735,191.933151
	C147.741196,190.734970 149.770401,189.542709 151.908875,188.645676
	C158.772766,185.766403 161.620102,180.743576 161.265289,173.305878
	C161.102768,169.898956 162.426590,166.444580 162.772003,162.981369
	C162.987289,160.822983 162.633713,158.607849 162.535446,156.418182
	C162.125931,156.313370 161.716415,156.208572 161.306900,156.103775
	C155.998505,161.967590 150.690109,167.831421 145.381714,173.695251
	C145.005508,173.395981 144.629303,173.096725 144.253098,172.797455
	C145.206253,170.723923 146.159424,168.650391 147.112579,166.576859
	C146.698654,166.184723 146.284729,165.792603 145.870804,165.400482
	C141.716339,168.699524 137.483398,171.905121 133.422226,175.315262
	C121.571068,185.266678 109.878685,195.409943 97.905090,205.210495
	C95.428200,207.237839 92.122986,208.818283 88.989441,209.337997
	C84.897980,210.016602 82.967064,212.267548 81.472191,215.644928
	C76.295731,227.340103 71.594414,239.289001 65.685257,250.605072
	C58.850903,263.692902 50.962296,276.232422 43.456131,288.965607
	C41.683228,291.973083 39.609409,294.803192 37.101879,297.723083
	C36.282425,297.373169 36.035103,297.015076 35.787785,296.657013
	C48.923988,269.719635 56.143963,240.554062 67.282059,212.898224
	C77.067352,188.601395 83.585487,163.361740 91.618210,138.559937
	C96.316467,124.053642 101.600960,109.728706 106.967079,95.451988
	C108.758698,90.685333 111.462280,86.174980 117.542122,84.091957
	C120.466759,100.447853 111.339272,115.063667 112.147713,132.377472
	C119.848549,124.503822 132.201431,124.470093 136.623123,112.885742
	C139.280441,115.649368 141.619370,114.364090 144.317902,112.502838
	C154.558960,105.439316 164.937088,98.573692 175.305054,91.696007
	C176.675598,90.786850 178.581070,90.546646 179.721939,89.455994
	C182.495636,86.804375 185.620377,84.188522 187.394012,80.904861
	C189.691284,76.651772 190.813660,71.764061 192.500778,66.982529
	C198.214676,66.875809 201.115967,70.539757 201.174545,78.546753
	C201.280457,78.671158 201.370102,78.815514 201.494705,78.916962
	C203.298096,80.385323 208.539825,78.650978 206.526810,83.411133
	C205.654816,85.473160 202.170471,86.292534 200.276199,88.099358
	C198.420486,89.869370 196.761169,92.009628 195.562225,94.276466
	C188.982849,106.716034 182.559967,119.238533 176.118698,131.750748
	C175.422455,133.103165 174.953705,134.572708 174.379425,135.987915
	C174.701584,136.271545 175.023758,136.555176 175.345932,136.838806
	C180.555145,133.822571 185.683273,130.653839 190.994400,127.829216
	C197.439011,124.401787 204.101685,121.384590 210.548584,117.961227
	C215.055267,115.568138 219.386200,112.837082 223.741852,110.169167
	C226.425919,108.525131 228.770508,106.842789 232.218781,109.059601
	C234.344543,110.426208 237.334137,110.371605 239.758408,111.381271
	C241.149200,111.960518 242.713150,113.204514 243.176849,114.511856
	C243.442383,115.260475 241.905289,117.192764 240.758865,117.808586
	C233.895782,121.495270 226.996033,125.137100 219.943497,128.441696
	C211.698776,132.304916 203.285049,135.807449 194.506668,139.117569
	C194.027206,138.142700 193.985718,137.516739 193.944244,136.890762
M96.267532,174.801849
	C93.264343,183.513168 90.261154,192.224472 87.257965,200.935791
	C87.719917,201.274643 88.181862,201.613510 88.643814,201.952362
	C90.903435,200.440979 93.278427,199.075607 95.404503,197.395248
	C113.245316,183.294678 131.057190,169.157257 148.825287,154.965240
	C150.742569,153.433823 152.856812,151.769379 153.976776,149.682159
	C160.336288,137.830185 166.457886,125.849510 172.556137,113.859573
	C173.383163,112.233574 173.624878,110.309875 174.256165,108.111061
	C172.631241,108.111061 171.715759,107.851509 171.051758,108.150482
	C162.734940,111.895088 154.439987,115.689369 146.172729,119.542336
	C143.308105,120.877388 143.788956,123.034508 144.845383,125.430870
	C146.713730,129.668961 148.775848,133.877792 150.059647,138.301208
	C151.275543,142.490616 148.457275,145.658508 144.060852,145.960495
	C138.591415,146.336182 135.744049,143.520233 134.209229,136.346054
	C133.717682,134.048416 133.043915,131.789764 132.407791,129.336960
	C125.001434,132.970673 118.397385,136.042221 111.986374,139.474350
	C110.378136,140.335312 108.891113,142.153458 108.198692,143.873917
	C104.171089,153.881348 100.397102,163.990845 96.267532,174.801849
z"/>
<path fill="#3A3332" opacity="1.000000" stroke="none"
	d="
M869.019714,151.065430
	C872.804504,148.688370 876.691895,146.455811 880.330566,143.872940
	C882.132751,142.593674 884.300781,140.910431 884.862671,138.988724
	C886.156799,134.563019 882.526978,131.977402 877.898438,133.933075
	C867.815552,138.193344 857.773071,142.556595 847.799133,147.065781
	C836.164856,152.325562 823.944153,155.116577 811.294617,156.261597
	C810.700073,156.315430 810.078491,156.071045 808.978821,154.746094
	C811.301575,153.636978 813.561157,152.362915 815.957275,151.445450
	C831.758240,145.394989 847.602539,139.457291 863.392761,133.379196
	C865.475342,132.577530 867.331116,131.186752 870.348511,129.466431
	C865.259277,126.117386 861.086609,123.230316 856.727356,120.659782
	C856.095337,120.287071 854.214600,121.139664 853.548706,121.949257
	C852.768005,122.898247 852.684143,124.420486 851.301575,124.953560
	C850.331726,119.683418 849.726807,115.675285 845.112061,113.804573
	C841.685181,112.415375 838.812500,111.951355 837.387512,116.632599
	C836.329529,120.108078 834.832275,123.510040 833.067688,126.687599
	C832.013794,128.585342 830.066589,129.986938 828.520935,131.611588
	C826.787231,129.754532 824.163635,128.166306 823.504700,125.984619
	C822.122192,121.407944 821.602966,116.539536 821.029846,111.754921
	C818.914795,94.096710 817.101196,76.399658 814.722229,58.778225
	C814.282593,55.521729 811.675476,52.580715 810.206909,49.429703
	C809.568787,48.060543 809.280273,46.528465 809.658447,44.734074
	C830.429504,60.820396 843.854065,80.324211 838.725891,108.768677
	C843.716431,108.768677 847.979797,108.950592 852.208496,108.647690
	C853.342285,108.566467 854.869934,107.226112 855.366699,106.091591
	C858.918152,97.979935 862.249756,89.772057 865.955872,80.862350
	C868.464478,82.782661 871.454163,84.732422 873.954590,87.181686
	C874.756226,87.966843 874.897644,90.462097 874.254883,91.506279
	C871.481567,96.011421 868.324524,100.282143 865.265198,104.608452
	C864.124878,106.220978 862.869873,107.752403 861.233887,109.885971
	C862.815674,110.270470 864.068604,111.025375 864.774353,110.675705
	C870.687805,107.745674 876.581787,104.749931 882.259338,101.397575
	C883.139771,100.877716 883.234131,98.417091 883.104370,96.904419
	C882.611877,91.167061 881.566833,85.463005 881.334961,79.722015
	C881.156372,75.299973 879.354675,74.792496 875.232178,74.246468
	C866.798340,73.129410 861.505554,76.351707 857.278076,83.152458
	C856.127808,85.002800 853.596375,85.994576 851.698853,87.380394
	C851.254028,86.921394 850.809204,86.462387 850.364380,86.003380
	C852.008667,84.182159 853.641113,82.350067 855.299255,80.541626
	C860.977356,74.349190 860.900757,73.653801 854.138855,69.400291
	C852.651855,68.464897 851.224792,67.434113 849.770142,66.447273
	C849.890930,66.003197 850.011719,65.559128 850.132507,65.115059
	C852.752686,65.364136 855.377991,65.568840 857.991882,65.872253
	C862.394043,66.383247 865.568237,65.163979 867.720642,60.816360
	C871.846375,52.482502 876.514404,44.418690 880.784058,36.153240
	C881.723633,34.334316 881.939575,32.141571 882.487732,30.124886
	C888.037476,31.349461 889.703186,33.915035 887.332825,38.874554
	C884.836487,44.097466 881.645142,48.990803 878.704773,53.997158
	C877.879028,55.403187 876.867310,56.699993 875.730774,58.352417
	C884.366150,59.336327 890.757263,63.852074 896.521545,69.290749
	C900.366211,72.918289 901.419312,78.219444 898.543091,80.867203
	C896.414551,82.826736 893.048401,83.441856 889.270752,85.071114
	C894.106689,88.527649 898.888855,91.945732 903.868164,95.504753
	C910.371765,77.791534 916.703491,60.546349 923.219849,42.798294
	C915.836304,41.073677 910.020142,47.288975 903.198792,47.345612
	C903.028564,46.670189 902.858398,45.994766 902.688171,45.319347
	C909.882568,43.188385 917.001953,40.730614 924.301208,39.056904
	C928.272461,38.146290 930.878113,41.108341 929.673157,45.100468
	C926.799255,54.622395 923.675232,64.090767 920.139404,73.385674
	C915.244019,86.254784 909.848572,98.933128 904.748047,111.725380
	C904.044434,113.490097 903.803589,115.439323 902.928467,119.023605
	C909.119446,116.829445 913.968323,115.045776 918.860962,113.391464
	C927.140442,110.592041 935.335144,107.425156 943.789429,105.306656
	C948.199707,104.201508 953.817505,104.347664 955.900818,109.664856
	C957.808960,114.534859 954.449890,118.615448 951.132507,121.814117
	C940.568604,132.000275 927.698303,136.903366 913.144714,138.128784
	C905.948120,138.734741 898.928101,139.889893 892.303833,143.786880
	C887.025879,146.891846 880.594177,148.027252 874.690857,150.083466
	C873.039734,150.658600 871.445923,151.398438 869.432739,151.845612
	C869.032959,151.440796 869.026367,151.253113 869.019714,151.065430
M909.125122,130.607376
	C915.231018,128.538528 921.431091,126.706306 927.412170,124.323967
	C931.982849,122.503403 936.368225,120.145309 940.632019,117.674362
	C941.777405,117.010612 942.862793,114.982040 942.718811,113.723763
	C942.585327,112.557442 940.928406,111.282188 939.649597,110.619286
	C938.615967,110.083420 936.957825,109.939987 935.900085,110.387245
	C924.178284,115.343346 912.364990,120.135155 900.963013,125.755547
	C898.418396,127.009857 897.378235,131.316376 895.645447,134.217682
	C896.071899,134.562500 896.498352,134.907318 896.924805,135.252136
	C900.750610,133.800995 904.576477,132.349854 909.125122,130.607376
M897.459229,118.845818
	C898.863281,115.228798 900.267395,111.611778 901.498230,108.440964
	C897.290894,107.262161 893.969055,105.806976 890.556396,105.547707
	C888.004272,105.353813 885.054504,106.256912 882.882446,107.625061
	C882.197998,108.056198 883.210693,111.659691 883.897827,113.655975
	C884.587219,115.658699 886.057007,117.386871 886.796997,119.379379
	C888.078674,122.830444 889.998413,123.766685 893.182373,121.683098
	C894.417419,120.874863 895.729370,120.184166 897.459229,118.845818
M872.099060,111.287582
	C871.037170,111.905540 869.975281,112.523491 868.683411,113.275269
	C872.554260,117.784904 880.356140,118.945602 877.939331,127.095650
	C884.784424,124.681175 884.783936,124.681320 882.889771,118.565666
	C882.645142,117.775841 882.426147,116.977699 882.165710,116.193214
	C879.922424,109.437088 879.526794,109.223854 872.099060,111.287582
z"/>
<path fill="#3A3331" opacity="1.000000" stroke="none"
	d="
M365.048645,95.007202
	C357.439972,93.707008 352.497528,89.576897 348.555908,82.034836
	C353.173859,82.821060 356.779144,83.844795 360.418793,83.986748
	C381.048096,84.791283 401.684814,85.411484 422.321075,86.025558
	C426.064087,86.136940 429.916870,85.390831 433.528412,86.063545
	C435.814178,86.489311 437.746857,88.810623 439.837891,90.281784
	C438.476288,91.901306 437.312744,93.767014 435.695099,95.068237
	C434.200012,96.270912 432.297394,97.135399 430.437286,97.686478
	C422.709381,99.975967 414.914795,102.039642 407.175690,104.292603
	C403.719421,105.298759 400.336334,106.556297 396.328278,107.897835
	C400.905487,119.456085 396.802917,130.428223 393.718872,142.830872
	C401.598145,139.234558 407.936005,136.512405 414.117065,133.471542
	C420.035767,130.559738 425.614807,126.884964 431.691803,124.397293
	C434.844879,123.106575 438.905121,122.892029 442.281494,123.565414
	C446.850311,124.476616 447.215790,127.946472 445.653198,132.137115
	C439.151245,149.574463 432.859192,167.090073 426.490509,184.577118
	C426.035553,185.826279 425.552979,187.066406 425.135681,188.328094
	C420.251068,203.096603 420.253723,203.097473 407.530548,212.541748
	C404.691620,210.256973 401.429230,208.972733 400.649414,204.077103
	C400.144653,200.908310 396.452454,197.872086 391.651184,199.294342
	C388.169739,200.325638 384.522705,201.264420 380.933594,201.326477
	C377.731781,201.381851 374.508148,200.178421 371.319580,199.535629
	C371.635437,197.889694 371.595032,197.376892 371.771149,197.286652
	C378.946655,193.610123 386.056702,189.782257 393.404999,186.486359
	C394.894562,185.818268 397.869965,186.591522 399.086304,187.790192
	C400.024109,188.714401 399.883026,191.628754 399.164459,193.163086
	C397.335815,197.067596 400.027130,198.046631 402.526459,198.764877
	C405.057556,199.492233 408.042023,201.725647 409.676666,196.857742
	C415.808746,178.596359 422.339844,160.469009 428.478241,142.209702
	C429.382568,139.519669 428.975800,136.388870 429.175629,133.462006
	C428.612549,133.142639 428.049469,132.823273 427.486389,132.503922
	C419.903778,136.082779 412.297241,139.612198 404.750397,143.265060
	C401.763550,144.710770 398.629395,146.082596 396.080322,148.132278
	C393.892853,149.891190 391.774780,152.314743 390.799530,154.888962
	C388.361267,161.324768 389.740417,162.742935 396.373840,162.067902
	C399.006683,161.799988 401.749512,161.747726 404.332977,162.209183
	C405.715973,162.456207 407.527557,163.786621 407.934082,165.025665
	C408.330597,166.234116 407.575165,168.278915 406.644623,169.382446
	C403.200623,173.466843 391.238037,175.457809 387.150024,172.178879
	C385.125183,170.554794 383.816681,167.355362 383.315704,164.658463
	C382.333496,159.371017 380.152771,157.799240 375.069611,159.799927
	C365.062592,163.738571 363.767334,165.910294 364.812866,176.692444
	C365.181244,180.491104 365.786743,184.322235 365.603455,188.105560
	C365.346863,193.402420 361.675751,196.517166 356.857361,196.243866
	C352.384491,195.990173 350.122772,193.060715 350.101654,187.493637
	C350.062714,177.224442 350.066742,177.249710 340.247772,178.814774
	C338.904114,179.028931 337.496918,178.844284 336.119141,178.844284
	C335.816315,178.314148 335.513489,177.784027 335.210663,177.253891
	C337.684204,175.093460 339.872406,172.416077 342.682281,170.864883
	C353.101715,165.112823 352.400024,155.762024 351.237701,146.154755
	C350.868103,143.099777 350.401306,140.056564 349.979004,137.007950
	C350.457642,136.783783 350.936279,136.559631 351.414917,136.335464
	C352.729797,138.230835 354.303131,140.000061 355.303284,142.049088
	C357.120453,145.772049 358.815155,149.586914 360.150848,153.503296
	C361.359985,157.048615 363.104797,157.862442 366.405792,156.055908
	C370.631775,153.743134 375.157166,151.931625 379.200317,149.350800
	C381.086670,148.146698 382.719788,145.843307 383.472260,143.690292
	C386.320648,135.540436 389.007599,127.314133 391.242371,118.979012
	C392.236023,115.273018 392.010223,111.240089 392.393860,106.692688
	C395.867126,104.832962 400.180756,102.523285 404.494385,100.213600
	C404.265656,99.777565 404.036957,99.341522 403.808228,98.905487
	C391.024872,97.622849 378.241486,96.340210 365.048645,95.007202
z"/>
<path fill="#383130" opacity="1.000000" stroke="none"
	d="
M574.002563,155.023041
	C580.249756,151.845551 586.337036,149.116760 591.997498,145.684189
	C593.871216,144.547958 595.676025,141.638641 595.759033,139.472733
	C596.396301,122.857086 596.678040,106.225876 596.896362,89.597221
	C596.967285,84.199593 596.537781,78.794441 596.304077,73.394157
	C596.181335,70.557991 597.876587,69.483978 600.068848,70.565750
	C605.508850,73.250084 611.158569,75.815208 615.922791,79.472061
	C620.146057,82.713730 621.028198,96.809822 618.291931,101.435341
	C617.870483,102.147728 617.250488,102.872871 617.172058,103.638222
	C616.111206,113.988480 615.129883,124.346886 614.122925,134.765503
	C623.100952,133.780197 630.124329,128.316803 630.746521,122.016937
	C635.794250,120.923988 640.866150,119.871132 645.912781,118.708549
	C647.684631,118.300369 649.511902,116.949562 651.104980,117.227280
	C653.452148,117.636459 655.612244,119.118546 657.852051,120.143661
	C656.807983,121.973022 656.203247,124.736931 654.643860,125.469955
	C647.904663,128.637756 640.971802,131.456314 633.939514,133.916016
	C629.140198,135.594696 623.802734,135.886047 619.197449,137.913986
	C616.218384,139.225815 612.810181,142.127075 611.864502,145.050461
	C607.677429,157.994781 603.933044,171.114197 600.766052,184.346786
	C598.107483,195.455292 592.517883,204.924240 586.324524,214.193619
	C583.371521,218.613205 580.198364,222.884995 577.186035,227.265701
	C572.879578,233.528458 566.603882,236.541748 559.488586,238.344208
	C550.525940,240.614655 541.647339,243.239761 532.633118,245.270752
	C529.888855,245.889069 526.816223,245.050262 522.808228,244.815125
	C534.038513,238.981735 544.441589,234.570374 553.697998,228.430283
	C560.157288,224.145615 566.058533,218.176956 570.404358,211.741730
	C577.336548,201.476669 583.139709,190.382675 588.662659,179.262833
	C591.117249,174.320770 591.891418,168.497314 593.075317,162.997925
	C593.454773,161.235336 592.702148,159.229019 592.326355,156.194611
	C586.867249,159.538986 582.344299,162.459366 577.681824,165.136871
	C565.909729,171.897217 554.193909,178.776794 542.159485,185.039780
	C539.898560,186.216415 535.984680,185.399902 533.374878,184.261841
	C531.904175,183.620499 531.131592,180.483673 530.926697,178.384918
	C530.866089,177.763641 533.770386,176.755157 535.384583,176.090561
	C537.953247,175.033020 540.766174,174.442200 543.148987,173.081635
	C553.389771,167.234116 563.511230,161.177719 574.002563,155.023041
z"/>
<path fill="#393231" opacity="1.000000" stroke="none"
	d="
M868.640564,151.019974
	C869.026367,151.253113 869.032959,151.440796 869.059937,151.909454
	C869.910522,153.121262 870.772095,154.877029 871.565857,154.846909
	C876.169434,154.672256 880.831177,154.429932 885.321228,153.486694
	C887.854187,152.954559 889.450073,152.601120 891.363586,154.900024
	C893.457458,157.415665 896.422607,159.182907 898.778625,161.508636
	C903.129456,165.803467 901.749573,170.011658 896.430420,172.898819
	C887.605835,177.688690 879.048035,183.029831 870.757690,188.694687
	C869.052795,189.859589 868.312927,193.487488 868.392273,195.939194
	C868.485291,198.811554 870.093018,200.377502 873.883606,199.208679
	C882.759094,196.471985 891.919006,194.661224 900.807373,191.960770
	C903.383362,191.178116 906.189941,189.116409 907.582947,186.840546
	C912.856262,178.225037 924.030090,178.443970 928.258301,186.046646
	C928.732056,186.898422 929.479187,187.643646 930.228455,188.288605
	C932.974060,190.651840 935.799011,193.316895 933.770325,197.143478
	C931.600525,201.236282 927.714172,203.187073 922.909546,202.772110
	C922.418640,202.729736 921.897217,202.640121 921.460693,202.427307
	C915.229126,199.388855 908.897339,200.597229 902.548706,201.910141
	C901.584961,202.109436 900.350342,202.497650 899.620483,202.100723
	C891.002625,197.414062 883.691589,203.989838 875.756897,204.962402
	C874.832520,205.075714 873.413879,208.205795 873.656067,209.706131
	C876.358276,226.442566 879.277405,243.145172 882.285400,259.830322
	C883.337158,265.664337 884.631531,271.467743 886.128418,277.203369
	C887.028137,280.650696 887.759949,284.755035 884.378601,286.093292
	C881.485413,287.238342 876.527161,286.968201 874.214233,285.136719
	C862.448303,275.819702 849.043701,270.737885 834.655640,267.458832
	C830.652832,266.546600 826.904663,264.517273 823.427551,261.912750
	C828.882812,262.936005 834.306702,264.194244 839.800537,264.929382
	C848.818604,266.136108 857.874695,267.077850 866.930115,267.976898
	C870.553162,268.336609 872.406982,266.756897 872.319092,262.747101
	C872.057068,250.791702 872.204468,238.825989 871.840088,226.875015
	C871.736633,223.482468 870.226990,220.156906 869.716980,216.747543
	C868.702087,209.963745 865.867493,208.051239 859.100769,210.359238
	C854.238037,212.017822 849.536133,214.143860 844.740967,216.006012
	C839.173828,218.167969 833.463501,220.007187 828.041382,222.481812
	C823.865784,224.387543 819.857666,226.799789 816.094482,229.441727
	C807.340210,235.587662 798.744995,242.004791 787.106506,240.100189
	C781.754883,239.224411 778.006775,236.559250 776.849121,230.749466
	C776.399170,228.491394 774.779480,226.466415 773.312500,223.589828
	C775.167114,223.692352 776.453064,223.372635 777.192444,223.868301
	C781.708069,226.895554 785.951904,225.251587 790.463501,223.740448
	C811.528809,216.684647 832.224548,208.367020 854.378418,204.953690
	C857.534668,204.467392 860.525208,202.906082 863.961914,201.714188
	C858.702942,192.193405 866.310364,186.982483 869.627563,180.494904
	C870.375549,179.032089 871.648621,177.847443 872.511169,176.431900
	C876.687622,169.577988 874.538269,164.802505 866.561401,163.106018
	C864.935547,162.760239 863.261108,162.577026 861.683594,162.081650
	C857.049622,160.626480 856.327759,158.325272 860.012939,155.201935
	C862.308105,153.256744 865.481934,152.348282 868.640564,151.019974
z"/>
<path fill="#393230" opacity="1.000000" stroke="none"
	d="
M670.073608,210.043396
	C677.654358,213.841385 684.936523,217.427185 692.195740,221.058762
	C694.789490,222.356339 697.327820,223.764572 700.870056,225.640549
	C698.997742,226.425262 698.356384,226.875488 697.672546,226.953568
	C686.677551,228.208832 675.698547,229.799789 664.665771,230.417282
	C661.047119,230.619797 656.858765,228.926071 653.717590,226.887405
	C650.957153,225.095825 649.023743,221.778748 647.203796,218.839050
	C642.832092,211.777634 638.494690,204.673111 634.605042,197.341125
	C630.506897,189.616165 627.010742,181.574097 623.120178,173.735825
	C621.228516,169.924744 619.037109,166.262466 616.981384,162.532822
	C617.310303,162.226654 617.639221,161.920471 617.968201,161.614288
	C626.236572,169.798309 634.313843,178.187698 642.826416,186.109406
	C651.585144,194.260254 660.768433,201.955002 670.073608,210.043396
z"/>
<path fill="#3A3331" opacity="1.000000" stroke="none"
	d="
M711.176270,341.797729
	C710.219910,340.966309 709.681641,340.150696 709.143372,339.335144
	C709.941711,338.887787 710.727417,338.077087 711.540344,338.048859
	C720.517334,337.736816 729.538513,336.923492 738.467529,337.496399
	C747.562439,338.079987 752.734558,342.944733 753.902405,349.911163
	C755.099976,357.054932 752.261292,361.799042 743.595459,366.685059
	C750.927551,374.541382 753.551636,386.490936 765.694336,389.829926
	C765.220215,390.674561 765.077942,391.342072 764.750732,391.450287
	C757.052551,393.995605 747.377441,390.602692 742.855774,383.816895
	C740.364929,380.078796 737.799377,376.386139 735.437378,372.567932
	C733.441528,369.341522 730.904114,367.856567 726.711792,369.293945
	C726.711792,373.896149 726.544617,378.662109 726.770142,383.409424
	C726.922485,386.615723 729.142090,387.857056 732.224915,388.073181
	C732.969543,388.125427 733.637329,389.274170 734.340454,389.918701
	C733.606750,390.381012 732.878479,391.234528 732.138489,391.244751
	C725.142639,391.341888 718.144165,391.337646 711.148621,391.224670
	C710.451904,391.213440 709.769958,390.288177 709.081116,389.787109
	C709.666077,389.188538 710.229797,388.096069 710.839355,388.069885
	C715.602295,387.865173 716.492676,384.832397 716.482544,380.905945
	C716.454285,369.910583 716.465881,358.914978 716.506836,347.919647
	C716.519592,344.500244 715.539001,341.994171 711.176270,341.797729
M743.101929,351.733276
	C741.686584,342.828674 735.654053,339.087524 726.641724,341.587494
	C726.641724,349.313507 726.641724,357.056946 726.641724,364.758698
	C737.546509,366.501526 742.825623,362.537872 743.101929,351.733276
z"/>
<path fill="#3D3635" opacity="1.000000" stroke="none"
	d="
M363.791199,384.527039
	C360.450928,379.566925 357.237640,374.970947 353.800354,370.054626
	C349.193756,375.451782 345.016907,380.345459 340.207153,385.980621
	C342.535919,386.878845 343.996338,387.332153 345.345856,388.007202
	C346.062592,388.365784 346.586975,389.108826 347.198181,389.678345
	C346.548401,390.222717 345.909729,391.223328 345.247162,391.239410
	C339.924438,391.368469 334.596619,391.349518 329.272125,391.265259
	C328.589203,391.254486 327.560303,390.755005 327.339233,390.216248
	C327.119934,389.681824 327.567108,388.285004 327.981232,388.165588
	C339.387177,384.876831 342.960266,373.582855 351.227081,366.109253
	C346.026154,358.915649 341.114288,351.854736 335.860016,345.058563
	C334.673737,343.524170 332.261017,342.966187 330.479462,341.852173
	C329.555420,341.274445 328.777100,340.463684 327.932922,339.758179
	C328.961761,339.250732 329.982788,338.322906 331.020660,338.303741
	C338.008453,338.174438 345.001526,338.160309 351.988342,338.315186
	C353.156982,338.341125 354.303406,339.371704 355.460083,339.938080
	C354.365265,340.573792 353.302856,341.277069 352.164948,341.822937
	C351.318481,342.228973 350.374207,342.431183 348.484650,343.045776
	C351.698975,347.996307 354.616241,352.489319 358.041077,357.764069
	C361.789001,352.788177 365.163208,348.308472 368.388763,344.026154
	C367.604858,343.015930 367.456421,342.668671 367.194183,342.512451
	C365.693787,341.618530 364.166351,340.770020 362.648071,339.906097
	C364.475830,339.351685 366.281097,338.432373 368.135986,338.318085
	C372.115265,338.072968 376.122772,338.169739 380.112091,338.312134
	C380.818359,338.337311 381.754303,339.135834 382.082031,339.818359
	C382.274658,340.219543 381.574402,341.593964 381.110168,341.684845
	C373.324829,343.209198 370.311066,350.058167 365.830780,355.245392
	C364.207977,357.124329 362.749054,359.144806 360.944366,361.446289
	C366.033020,368.860687 370.920166,376.354126 376.256134,383.513092
	C377.722961,385.480988 380.553345,386.416809 382.711517,387.894135
	C383.420197,388.379303 383.982147,389.078827 384.611206,389.680298
	C383.772369,390.225708 382.941803,391.229065 382.093384,391.244354
	C375.105499,391.370453 368.113739,391.353180 361.124969,391.252289
	C360.385437,391.241608 359.657654,390.413147 358.924438,389.964081
	C359.597382,389.296112 360.277496,388.635162 360.941650,387.958527
	C361.939667,386.941833 362.926544,385.914154 363.791199,384.527039
z"/>
<path fill="#403A39" opacity="1.000000" stroke="none"
	d="
M541.185791,338.549957
	C546.504211,338.282440 551.502014,338.158386 556.491699,338.306671
	C557.453674,338.335266 558.383850,339.430878 559.328735,340.034241
	C558.545166,340.637177 557.788147,341.716827 556.973511,341.762207
	C553.044250,341.981262 552.561951,344.442047 552.574341,347.609894
	C552.630493,361.915131 552.598877,376.220673 552.598877,392.349762
	C549.882324,390.776581 547.605591,390.125977 546.345154,388.623077
	C535.755737,375.996582 525.352539,363.213867 514.432068,349.916534
	C514.200867,351.451385 513.927917,352.434662 513.923767,353.419037
	C513.885559,362.578552 513.943665,371.738708 513.863770,380.897736
	C513.831299,384.612640 514.557251,387.524475 518.980408,388.037079
	C519.697266,388.120117 520.315430,389.054108 520.979248,389.594757
	C520.188354,390.173218 519.415283,391.220795 518.603516,391.251709
	C514.279846,391.416473 509.943146,391.413940 505.619324,391.249542
	C504.779999,391.217621 503.977692,390.211365 503.158325,389.654541
	C503.789825,389.066956 504.345184,388.101746 505.065887,387.956329
	C508.401489,387.283417 509.150269,385.086853 509.136566,382.088593
	C509.082550,370.264526 509.065826,358.439636 509.159729,346.616058
	C509.179443,344.133972 508.706543,342.513214 505.947601,341.937439
	C505.015625,341.742950 504.316040,340.435120 503.510254,339.636078
	C504.596130,339.165833 505.657837,338.373505 506.772766,338.289734
	C509.422394,338.090637 512.163025,337.868408 514.740967,338.341583
	C516.791870,338.718018 519.221680,339.625122 520.511475,341.129700
	C528.419250,350.354736 536.044739,359.821594 543.779663,369.195190
	C544.894409,370.546112 546.092407,371.828339 547.940125,373.922363
	C547.940125,363.839447 548.118408,354.770203 547.744507,345.723755
	C547.689575,344.393951 545.199890,342.634308 543.500061,342.045593
	C541.635071,341.399628 539.705200,341.598724 541.185791,338.549957
z"/>
<path fill="#3A3432" opacity="1.000000" stroke="none"
	d="
M231.695343,371.329468
	C225.881195,364.270782 220.300613,357.480652 214.049103,349.874176
	C213.737946,351.948334 213.418869,353.108337 213.412827,354.269989
	C213.367752,362.926208 213.406372,371.582825 213.372513,380.239136
	C213.357010,384.201721 213.882370,387.647125 218.920593,388.098083
	C219.514496,388.151245 220.009048,389.314392 220.549652,389.963013
	C219.789139,390.409882 219.037338,391.225586 218.266708,391.243744
	C213.301285,391.360870 208.331711,391.303619 201.884964,391.303619
	C203.381226,389.562988 203.960922,388.223846 204.837448,387.988037
	C208.032043,387.128510 208.933029,385.062012 208.919113,382.042328
	C208.864624,370.223236 208.814453,358.402618 208.965530,346.585144
	C209.002777,343.670715 207.968063,342.360657 205.188919,341.852356
	C204.398285,341.707733 203.802750,340.496368 203.117752,339.774170
	C203.982468,339.267303 204.826675,338.369904 205.715591,338.323212
	C209.035828,338.148743 212.417450,337.924255 215.680832,338.388214
	C217.370377,338.628448 219.229965,339.963470 220.381424,341.334198
	C229.345642,352.005157 238.156143,362.805206 247.745270,374.453461
	C247.745270,364.336456 247.949539,355.286377 247.545517,346.263580
	C247.477661,344.748047 244.831406,343.289307 243.273926,341.921082
	C242.335632,341.096802 241.199097,340.498199 240.151657,339.798157
	C241.351730,339.282898 242.538025,338.364532 243.754318,338.322937
	C248.709610,338.153412 253.674088,338.252350 260.274200,338.252350
	C258.520142,340.140198 257.785522,341.642273 256.975952,341.683807
	C252.561417,341.910339 252.057770,344.593079 252.082657,348.178864
	C252.180817,362.321808 252.122925,376.465851 252.122925,392.091370
	C249.667023,390.805908 247.461777,390.288757 246.245422,388.903351
	C241.308136,383.279877 236.674515,377.389771 231.695343,371.329468
z"/>
<path fill="#3B3533" opacity="1.000000" stroke="none"
	d="
M310.906128,365.683777
	C312.551422,365.684326 313.733704,365.563263 314.880646,365.712891
	C316.744293,365.956055 318.584808,366.376434 320.435089,366.722046
	C319.271301,367.815369 317.953949,368.790497 316.992523,370.039551
	C316.227936,371.032867 315.690460,372.317688 315.433167,373.552490
	C315.166687,374.831390 315.350189,376.205963 315.352417,377.538666
	C315.370636,388.457458 315.408142,388.635376 304.762543,390.811798
	C300.577087,391.667511 296.107117,392.218109 291.906799,391.721832
	C275.815277,389.820465 266.600494,376.676117 269.276764,360.098450
	C271.874695,344.006012 284.758453,334.650085 300.551025,337.449554
	C305.159210,338.266449 309.736572,339.257355 314.953003,340.292572
	C314.953003,344.092712 314.953003,349.076721 314.953003,354.060730
	C314.640900,354.253387 314.328827,354.446075 314.016724,354.638733
	C313.191742,353.572021 312.072968,352.622925 311.590759,351.418945
	C309.001465,344.953613 304.718994,340.820770 297.400177,340.844727
	C290.446960,340.867493 284.698700,345.196533 282.039490,352.363159
	C278.747375,361.235260 279.098938,370.051483 283.137360,378.576721
	C286.619751,385.928131 294.490173,389.848267 301.699310,387.697083
	C303.196777,387.250214 304.631165,385.084747 305.190186,383.409515
	C305.790527,381.610443 305.150421,379.437225 305.359009,377.459747
	C305.881836,372.503265 304.387695,369.376404 298.838409,369.111084
	C297.935699,369.067932 297.091461,367.802612 296.220215,367.102173
	C297.123413,366.630707 298.011658,365.789490 298.932434,365.752197
	C302.758698,365.597382 306.594757,365.685028 310.906128,365.683777
z"/>
<path fill="#3B3533" opacity="1.000000" stroke="none"
	d="
M39.238064,389.945679
	C24.311106,384.341187 21.548084,365.874146 25.628420,354.077789
	C29.908796,341.703094 42.269848,334.985565 56.135242,337.591797
	C60.584877,338.428131 65.036858,339.251953 69.920578,340.162201
	C69.920578,344.164856 69.920578,349.073975 69.920578,353.983124
	C69.612869,354.192566 69.305161,354.402008 68.997452,354.611450
	C68.160614,353.601654 67.054291,352.714355 66.530540,351.562225
	C63.055214,343.917328 58.613724,340.595154 51.934540,340.855652
	C44.919319,341.129242 39.454525,345.307465 36.809017,352.684601
	C33.619694,361.578156 34.017441,370.409576 38.167683,378.884460
	C41.579174,385.850769 48.753162,389.284729 55.986580,387.978943
	C58.791531,387.472565 60.594273,386.406708 60.202358,383.100220
	C59.968597,381.128021 59.964256,379.082397 60.197956,377.110229
	C60.774376,372.245941 59.097149,369.447388 53.881271,369.135986
	C52.921463,369.078674 52.027805,367.913483 51.103619,367.259644
	C52.114601,366.735870 53.115688,365.782318 54.138187,365.758759
	C60.301205,365.616852 66.470230,365.631165 72.634193,365.750610
	C73.536125,365.768097 74.421768,366.626038 75.314957,367.095093
	C74.782608,367.766205 74.188622,368.397949 73.729828,369.116089
	C72.513870,371.019440 71.224716,372.896057 70.240326,374.917542
	C69.846832,375.725586 70.176483,376.885864 70.177155,377.885803
	C70.184219,388.440216 70.171669,388.388153 59.763489,390.899384
	C52.941341,392.545380 46.239841,392.435944 39.238064,389.945679
z"/>
<path fill="#3B3533" opacity="1.000000" stroke="none"
	d="
M664.937500,350.256531
	C665.134705,345.679749 664.894592,341.927765 659.349792,341.680969
	C658.839600,341.658264 658.386475,340.354584 657.906860,339.645752
	C658.641296,339.178284 659.360474,338.337738 660.112793,338.307007
	C663.602905,338.164429 667.102173,338.247589 670.598206,338.247864
	C679.562073,338.248505 688.525940,338.248016 697.888733,338.248016
	C698.237732,342.511749 698.556580,346.407288 698.875366,350.302856
	C698.384827,350.529541 697.894226,350.756226 697.403687,350.982910
	C696.718567,349.794769 695.740723,348.683289 695.405579,347.403503
	C694.548584,344.130524 692.693176,342.806763 689.270020,342.975189
	C684.660767,343.201965 680.032043,343.031464 675.193359,343.031464
	C675.193359,349.394562 675.193359,355.326874 675.193359,361.975983
	C678.907349,361.975983 682.844971,362.682983 686.354248,361.760590
	C689.360474,360.970367 691.876160,358.314148 694.791626,356.360748
	C694.791626,361.731689 694.791626,367.255341 694.791626,372.615601
	C692.017944,370.713013 689.549133,368.049957 686.573914,367.234589
	C683.178589,366.304108 679.332275,367.019257 675.009705,367.019257
	C675.009705,372.784302 674.848572,378.375275 675.161377,383.939575
	C675.216309,384.917084 677.201660,386.479156 678.391235,386.574249
	C682.527039,386.904938 686.707031,386.794281 690.866028,386.687866
	C694.558960,386.593414 696.405334,384.202362 697.612000,380.986023
	C698.058472,379.796021 699.017090,378.798218 699.742126,377.712769
	C700.183838,377.903259 700.625488,378.093750 701.067200,378.284241
	C700.826477,382.384369 700.585815,386.484497 700.302490,391.311401
	C698.073730,391.311401 695.989624,391.311401 693.905579,391.311401
	C682.585144,391.311371 671.264221,391.358185 659.945007,391.242340
	C658.751221,391.230133 657.567200,390.261353 656.378662,389.736359
	C657.487305,389.150299 658.570435,388.122711 659.709106,388.057068
	C663.909363,387.814911 664.975159,385.338440 664.957947,381.687897
	C664.909607,371.366577 664.938843,361.044830 664.937500,350.256531
z"/>
<path fill="#3E3837" opacity="1.000000" stroke="none"
	d="
M484.765869,366.968506
	C484.765930,361.307495 484.874084,356.137970 484.731720,350.975372
	C484.618042,346.852997 485.036835,342.243469 478.940918,341.707428
	C478.466125,341.665649 477.612640,340.395203 477.759735,340.013367
	C478.034607,339.299805 478.901428,338.336823 479.545654,338.318726
	C484.541595,338.178192 489.544983,338.175201 494.540863,338.315369
	C495.185455,338.333466 495.800171,339.415436 496.428711,340.004578
	C495.813507,340.611664 495.250763,341.674957 494.574677,341.752686
	C489.804932,342.301147 489.325195,345.658325 489.317352,349.388672
	C489.302612,356.388428 489.447296,363.391998 489.264221,370.387146
	C488.785492,388.679688 473.122711,397.847870 456.663971,389.560791
	C450.701569,386.558716 447.856140,381.450134 447.620392,375.047882
	C447.301666,366.393555 447.412170,357.722748 447.381531,349.058868
	C447.368652,345.424896 447.556030,341.812103 442.320618,341.631287
	C441.735962,341.611115 441.208557,339.933777 440.171722,338.232758
	C447.977631,338.232758 454.625214,338.172638 461.268829,338.308136
	C462.107086,338.325256 462.924408,339.370148 463.751434,339.938843
	C462.986816,340.590790 462.098694,341.143982 461.482452,341.914581
	C460.071686,343.678802 457.732330,345.499298 457.643616,347.385071
	C457.236847,356.031616 457.245697,364.716492 457.546112,373.372253
	C457.843658,381.945343 462.213013,386.312042 470.031097,386.642212
	C477.958618,386.977051 483.031952,382.714081 484.341522,374.427704
	C484.702911,372.140900 484.636108,369.786438 484.765869,366.968506
z"/>
<path fill="#3A3432" opacity="1.000000" stroke="none"
	d="
M183.145386,364.710266
	C184.848740,369.820251 186.439880,374.550873 188.036652,379.279602
	C189.268555,382.927917 190.355408,386.653900 194.683456,388.006317
	C195.205078,388.169312 195.914902,389.509155 195.738480,389.776703
	C195.297745,390.445190 194.404144,391.221191 193.680176,391.233368
	C187.183777,391.342560 180.684006,391.341125 174.187637,391.230286
	C173.485382,391.218292 172.798477,390.307281 172.104462,389.813263
	C172.844421,389.203552 173.566345,388.092346 174.327240,388.064941
	C179.541763,387.877441 179.367828,385.137115 178.018387,381.295715
	C174.685974,371.809540 174.749878,372.104828 164.912354,371.643860
	C159.923035,371.410065 157.559341,373.009155 156.987350,377.833466
	C156.793839,379.465637 156.243835,381.085419 155.656082,382.634766
	C154.464691,385.775299 155.594177,387.279724 158.768005,387.929626
	C160.069244,388.196045 161.216705,389.213593 162.434128,389.889465
	C161.038223,390.361816 159.657440,391.179565 158.243576,391.241425
	C154.086014,391.423218 149.912567,391.384888 145.751923,391.241425
	C144.847549,391.210236 143.970673,390.381470 143.081146,389.920044
	C143.776138,389.257507 144.487488,388.611176 145.162933,387.929291
	C146.947021,386.128143 149.623062,384.613647 150.342682,382.451996
	C154.965363,368.566162 159.172485,354.541656 163.462097,340.546112
	C163.778229,339.514709 163.670563,338.353424 163.756470,337.295105
	C173.652863,336.407990 173.662018,336.404907 176.696579,345.396729
	C178.824722,351.702759 180.923645,358.018646 183.145386,364.710266
M166.433380,367.021942
	C168.517151,367.021942 170.600906,367.021942 173.277222,367.021942
	C170.970856,360.354401 168.887482,354.331512 166.383102,347.091492
	C164.122055,354.478058 162.269287,360.530853 160.282349,367.021973
	C162.542145,367.021973 164.019684,367.021973 166.433380,367.021942
z"/>
<path fill="#3E3736" opacity="1.000000" stroke="none"
	d="
M125.729843,372.136383
	C125.763863,364.366943 125.878990,357.041870 125.742432,349.721497
	C125.672691,345.982971 125.288307,342.213074 120.193443,341.724518
	C119.631279,341.670593 119.183762,340.421204 118.683075,339.726227
	C119.388985,339.229736 120.083954,338.322357 120.802559,338.303192
	C125.625786,338.174835 130.455750,338.172638 135.278824,338.303375
	C135.988556,338.322601 136.673325,339.263092 137.369659,339.777313
	C136.847656,340.459991 136.374863,341.687683 135.795959,341.739899
	C130.735428,342.196655 130.257462,345.722198 130.249359,349.631561
	C130.234497,356.788269 130.301239,363.946045 130.196243,371.101349
	C130.083176,378.805756 128.152039,385.915466 120.672325,389.567017
	C112.370888,393.619781 103.794029,393.154877 95.832092,388.426208
	C89.908821,384.908386 88.469444,378.820740 88.359383,372.433472
	C88.224625,364.613312 88.303726,356.788940 88.341286,348.966644
	C88.358879,345.301758 88.448914,341.741455 83.237450,341.634338
	C82.688393,341.623047 82.169563,340.140961 80.905258,338.243439
	C89.033073,338.243439 95.931122,338.196686 102.826164,338.319214
	C103.481003,338.330841 104.117004,339.402374 104.761749,339.981842
	C104.150864,340.600800 103.602219,341.670166 102.918861,341.764587
	C98.888420,342.321533 98.417084,345.221649 98.391830,348.363342
	C98.332962,355.686066 98.346069,363.009644 98.375603,370.332703
	C98.418869,381.060638 102.036133,385.914581 110.444016,386.611542
	C119.036148,387.323792 123.850250,382.898865 125.729843,372.136383
z"/>
<path fill="#3E3837" opacity="1.000000" stroke="none"
	d="
M921.817017,338.237335
	C923.121887,338.238464 923.988953,338.091217 924.779907,338.273651
	C926.099548,338.578094 927.370544,339.093567 928.661987,339.520203
	C927.712463,340.338379 926.477295,340.991913 925.886414,342.016846
	C925.165466,343.267578 924.185120,345.298309 924.701782,346.182007
	C928.047302,351.904327 931.770020,357.406158 936.002747,363.961609
	C939.364380,357.575195 942.496887,352.004303 945.139709,346.210052
	C945.556152,345.297119 943.839355,343.320282 942.950256,341.937256
	C942.423950,341.118500 941.586670,340.499542 940.889221,339.790771
	C941.749512,339.274078 942.593323,338.346466 943.472900,338.311127
	C947.464050,338.150970 951.468933,338.153503 955.460266,338.312561
	C956.343140,338.347748 957.191162,339.256927 958.055237,339.763672
	C957.420288,340.528168 956.856689,341.368866 956.136780,342.042511
	C954.152222,343.899384 951.544312,345.344910 950.184875,347.566284
	C946.368042,353.802826 942.149963,360.039886 939.827515,366.867706
	C937.940735,372.414642 938.309448,378.816711 938.320801,384.838318
	C938.322876,385.889893 941.536194,386.895905 943.213623,388.002899
	C943.903625,388.458313 944.454163,389.125214 945.068176,389.695862
	C944.407288,390.230621 943.753967,391.218994 943.084351,391.230164
	C936.090576,391.346924 929.093506,391.349335 922.099426,391.244507
	C921.401184,391.234009 920.716553,390.307495 920.025574,389.806152
	C920.774170,389.193451 921.485107,388.109863 922.277588,388.046631
	C926.501465,387.709473 927.121643,385.030457 927.416809,381.487915
	C928.048889,373.901489 926.654541,367.148621 921.761230,361.006256
	C918.252075,356.601532 915.728271,351.422668 912.360596,346.889465
	C910.828552,344.827301 908.284363,343.531494 906.272827,341.802551
	C905.639465,341.258209 905.245056,340.435822 904.741272,339.740662
	C905.611877,339.238708 906.469910,338.330261 907.355225,338.302826
	C912.014648,338.158386 916.681030,338.236389 921.817017,338.237335
z"/>
<path fill="#3E3736" opacity="1.000000" stroke="none"
	d="
M617.264160,351.426147
	C620.707397,360.062531 624.009399,368.322510 627.658264,377.450134
	C631.515747,366.596344 635.099365,356.606384 638.606445,346.589630
	C639.675293,343.536652 637.916809,342.436615 635.217407,341.831085
	C634.217163,341.606689 633.403564,340.550446 632.504822,339.873596
	C633.508362,339.329865 634.497559,338.349823 635.517883,338.316284
	C640.493774,338.152893 645.477966,338.242340 651.393921,338.242340
	C650.741760,339.768341 650.465576,341.500092 649.880920,341.611450
	C645.059692,342.529633 643.792175,346.452240 642.416870,350.169189
	C637.802551,362.639832 633.388123,375.184998 628.692627,387.624451
	C628.051941,389.321655 626.249878,390.580505 624.985535,392.042297
	C623.565613,390.544495 621.552246,389.290344 620.821106,387.509705
	C615.708374,375.058136 610.926819,362.470947 605.886169,349.989014
	C604.444214,346.418274 603.635498,342.051361 598.416321,341.686462
	C597.942017,341.653290 597.058472,340.350586 597.209045,339.999298
	C597.515137,339.285095 598.390503,338.334869 599.045349,338.323975
	C606.201172,338.204346 613.360474,338.202972 620.516418,338.316376
	C621.217346,338.327515 621.902771,339.316711 622.595337,339.851929
	C622.020874,340.501312 621.566345,341.501251 620.853210,341.745331
	C614.388794,343.957520 614.375549,343.918854 617.264160,351.426147
z"/>
<path fill="#3D3635" opacity="1.000000" stroke="none"
	d="
M793.470825,372.616516
	C790.596069,370.623016 787.945862,368.940613 785.353882,367.172791
	C783.041199,365.595490 780.466248,364.232330 778.578857,362.234436
	C773.440918,356.795532 772.441223,349.462524 775.653503,343.835785
	C778.617004,338.644623 785.622253,335.970886 792.712219,337.356506
	C795.855286,337.970764 798.986938,338.643738 802.832764,339.436157
	C803.204590,342.903839 803.675049,347.291229 804.145508,351.678589
	C803.658142,351.935120 803.170776,352.191620 802.683350,352.448151
	C801.777222,351.118317 800.705811,349.870850 799.994324,348.443939
	C797.372437,343.185303 793.493164,340.201233 788.801819,341.012512
	C786.675964,341.380096 784.016541,342.974945 783.113220,344.773438
	C782.351929,346.289215 783.162659,349.398804 784.380554,350.919556
	C786.301270,353.317902 789.102539,355.033997 791.611633,356.932434
	C794.653992,359.234375 798.021545,361.161407 800.821045,363.718445
	C807.091980,369.446167 808.430664,377.523407 804.671509,384.582001
	C801.529785,390.481354 794.536499,393.163574 786.477051,391.657501
	C782.900574,390.989166 779.292297,390.490906 775.012878,389.805664
	C774.574829,385.939758 774.023193,381.071503 773.471558,376.203247
	C773.912903,375.939209 774.354248,375.675140 774.795593,375.411102
	C775.626831,376.543213 776.681763,377.574158 777.248169,378.826080
	C779.076904,382.868317 781.126465,387.121216 785.854675,387.697754
	C788.778992,388.054321 792.564270,387.150726 794.864807,385.383301
	C797.881958,383.065308 797.525513,379.175140 795.645569,375.794647
	C795.082825,374.782715 794.366577,373.856140 793.470825,372.616516
z"/>
<path fill="#3E3736" opacity="1.000000" stroke="none"
	d="
M859.734009,389.836853
	C860.074951,388.991577 860.362244,388.194183 860.804871,388.095856
	C867.907715,386.518097 867.921021,386.538391 867.925293,379.403198
	C867.932434,367.442444 867.927185,355.481689 867.927185,342.948059
	C864.042114,342.948059 860.238892,342.229431 856.945129,343.214417
	C854.930664,343.816864 853.615662,346.978333 852.146912,349.101440
	C851.295288,350.332550 850.761292,351.783386 850.084412,353.135376
	C849.512146,352.901459 848.939880,352.667542 848.367554,352.433624
	C848.802124,347.256531 849.236694,342.079468 849.621643,337.493439
	C865.367676,337.493439 880.414490,337.493439 896.158813,337.493439
	C896.490295,342.068970 896.866638,347.262970 897.242920,352.456970
	C896.844055,352.659485 896.445190,352.862000 896.046326,353.064514
	C895.373413,352.278534 894.362854,351.597656 894.080444,350.690155
	C891.638855,342.843842 891.677917,342.831390 883.622803,342.824158
	C881.969666,342.822662 880.316528,342.823944 877.978577,342.823944
	C877.978577,349.297272 877.978821,355.558411 877.978577,361.819580
	C877.978394,368.145721 878.108276,374.475494 877.931946,380.796753
	C877.812256,385.089874 878.838623,388.023804 883.848755,388.050964
	C884.548767,388.054749 885.243713,388.978851 885.940979,389.476929
	C885.357300,390.082611 884.775269,391.212952 884.189819,391.214691
	C876.221985,391.238434 868.253540,391.111176 860.285950,390.978668
	C860.103943,390.975616 859.930176,390.477325 859.734009,389.836853
z"/>
<path fill="#3D3635" opacity="1.000000" stroke="none"
	d="
M583.648682,353.074829
	C583.647522,362.715454 583.657227,371.866241 583.639465,381.016998
	C583.632507,384.592316 584.005981,387.785797 588.696411,388.066986
	C589.279724,388.101959 589.796631,389.244019 590.344299,389.873108
	C589.629639,390.350220 588.921814,391.229095 588.199219,391.241425
	C581.878845,391.349274 575.554810,391.350616 569.234802,391.231506
	C568.551270,391.218628 567.885986,390.241913 567.212219,389.712280
	C567.832214,389.118927 568.379456,388.126953 569.084229,387.998505
	C572.955261,387.292786 573.593689,384.550964 573.595581,381.325104
	C573.601868,370.510559 573.616394,359.695953 573.592041,348.881470
	C573.584229,345.399536 573.325684,342.063324 568.639343,341.688080
	C568.120544,341.646515 567.176331,340.421661 567.306519,340.093903
	C567.596802,339.363129 568.431396,338.343933 569.062439,338.331024
	C575.548340,338.198181 582.038391,338.208557 588.525757,338.294067
	C589.136414,338.302094 590.101074,338.999451 590.244019,339.548096
	C590.401550,340.152283 589.855469,341.551331 589.520325,341.582703
	C581.925415,342.293549 584.017517,348.089661 583.648682,353.074829
z"/>
<path fill="#3A3332" opacity="1.000000" stroke="none"
	d="
M414.766846,389.917908
	C407.540802,390.642700 400.344177,390.997101 393.143433,391.217102
	C392.666138,391.231720 391.795776,390.242889 391.766266,389.685913
	C391.737213,389.137604 392.497009,388.095428 392.994598,388.041290
	C397.933380,387.503754 397.944824,383.976807 397.933594,380.312378
	C397.902405,370.151306 397.937317,359.990051 397.915833,349.828949
	C397.908051,346.150543 398.387573,342.158813 392.953918,341.687836
	C392.483917,341.647125 391.633514,340.359253 391.785248,339.988647
	C392.075165,339.280487 392.950684,338.336975 393.599274,338.324463
	C399.926788,338.202026 406.258484,338.204315 412.586365,338.317200
	C413.325134,338.330322 414.048187,339.225372 414.778503,339.711548
	C414.260559,340.411896 413.796844,341.668976 413.216187,341.725525
	C408.031982,342.230438 407.926300,345.875610 407.939575,349.743408
	C407.973938,359.737885 408.076019,369.734772 407.897614,379.726166
	C407.814423,384.382446 408.308197,388.163849 414.175964,388.294769
	C414.391388,388.299561 414.589233,389.091064 414.766846,389.917908
z"/>
<path fill="#3B3533" opacity="1.000000" stroke="none"
	d="
M832.767334,391.313599
	C827.318970,391.313354 822.338379,391.313354 817.357727,391.313354
	C817.074890,390.963379 816.791992,390.613434 816.509094,390.263458
	C817.336426,389.464294 818.268616,388.746857 818.968872,387.848602
	C820.361328,386.062592 822.709473,384.209839 822.766479,382.327240
	C823.118408,370.700378 822.961914,359.057434 822.928467,347.419983
	C822.920105,344.504944 822.022461,342.250946 818.608093,341.727295
	C817.900818,341.618835 817.377563,340.311279 816.769531,339.556335
	C817.526550,339.119080 818.277466,338.315369 819.041626,338.302551
	C825.191162,338.199463 831.343994,338.198914 837.493530,338.304352
	C838.267822,338.317627 839.028381,339.128540 839.795349,339.569916
	C839.165039,340.328430 838.614258,341.650482 837.891296,341.752441
	C833.732727,342.339111 832.976501,345.146576 832.976990,348.598724
	C832.978638,359.737518 832.778076,370.883240 833.161499,382.008820
	C833.230835,384.020447 835.598816,386.025787 837.094238,387.882050
	C837.762024,388.710999 838.896729,389.163818 839.819519,389.787323
	C838.788452,390.295807 837.803772,391.005280 836.713501,391.256653
	C835.608398,391.511475 834.398926,391.313538 832.767334,391.313599
z"/>
<path fill="#393230" opacity="1.000000" stroke="none"
	d="
M124.309349,265.299866
	C120.585770,271.040070 116.848511,276.342712 113.615524,281.936768
	C111.569435,285.477142 109.988976,289.357971 108.708725,293.253387
	C106.622780,299.600311 104.010460,301.812805 98.586555,301.004822
	C92.512657,300.099976 87.328667,294.679291 87.769974,289.269012
	C87.994690,286.514069 88.959732,283.819519 89.590126,281.097656
	C89.961273,281.509094 90.332420,281.920502 90.703575,282.331909
	C93.848488,280.737152 97.214737,279.464783 100.096367,277.486481
	C108.374397,271.803436 116.456383,265.834839 124.615417,259.978455
	C125.129906,260.467499 125.644386,260.956543 126.158875,261.445587
	C125.608948,262.625610 125.059021,263.805634 124.309349,265.299866
z"/>
<path fill="#3A3331" opacity="1.000000" stroke="none"
	d="
M331.260193,214.305206
	C332.515045,217.650421 333.422852,220.722595 334.884918,223.503296
	C336.830566,227.203751 335.729645,229.844284 332.735992,232.148529
	C329.548889,234.601639 326.187592,235.328369 322.600677,233.007736
	C317.750885,229.870056 315.309235,222.923904 315.785492,217.061295
	C316.538757,207.788284 316.581512,198.457047 316.899017,189.149567
	C316.961945,187.304413 316.908112,185.455292 316.908112,183.608002
	C317.352600,183.560196 317.797089,183.512375 318.241577,183.464569
	C320.473083,188.876251 322.597229,194.336304 324.999420,199.671112
	C325.751617,201.341599 327.662750,202.514053 328.322723,204.197083
	C329.548248,207.322464 330.243713,210.655716 331.260193,214.305206
z"/>
<path fill="#3A3331" opacity="1.000000" stroke="none"
	d="
M779.833435,158.000229
	C783.704590,165.511398 787.915100,173.164993 791.025757,181.242142
	C792.823242,185.909561 793.091553,191.236649 793.579102,196.311890
	C793.882568,199.471008 793.354370,202.759506 789.410706,203.805466
	C785.367310,204.877899 780.872986,205.303406 778.724792,201.230682
	C776.579956,197.164398 775.000732,192.339005 774.874695,187.799164
	C774.750549,183.325943 776.204651,178.561035 777.971924,174.345703
	C780.197632,169.036774 780.491821,163.808151 779.833435,158.000229
z"/>
<path fill="#3D3635" opacity="1.000000" stroke="none"
	d="
M163.382843,53.594147
	C173.504044,48.849186 183.348694,44.416157 192.978775,39.557793
	C196.133987,37.965984 198.992264,35.529629 201.512711,33.006393
	C204.123688,30.392513 206.420120,28.513336 210.028519,31.150265
	C210.655426,31.608402 211.695862,31.467064 212.395477,31.865606
	C214.561508,33.099483 216.655243,34.460262 218.777054,35.771782
	C217.103058,37.683830 215.786148,40.302124 213.683060,41.365543
	C208.836166,43.816338 203.634750,45.584995 198.526459,47.494808
	C192.474792,49.757328 186.508133,53.078033 180.257904,53.797901
	C168.836075,55.113396 158.082275,58.370800 147.325668,61.978455
	C146.964905,62.099453 146.443909,61.742645 145.576538,60.472466
	C151.391968,58.228500 157.207382,55.984535 163.382843,53.594147
z"/>
<path fill="#393230" opacity="1.000000" stroke="none"
	d="
M157.043976,30.076065
	C161.264725,33.244129 161.108292,37.872612 159.432663,41.069901
	C158.143524,43.529739 153.998840,45.357056 150.884262,45.807247
	C145.277451,46.617661 141.135529,44.861591 137.955322,38.770397
	C132.942947,29.169960 126.050171,20.551279 119.363579,10.642985
	C125.603767,14.234807 131.380661,17.849352 137.418930,20.955833
	C143.714935,24.194918 150.262939,26.944225 157.043976,30.076065
z"/>
<path fill="#3E3837" opacity="1.000000" stroke="none"
	d="
M103.013130,83.029503
	C89.531860,91.104683 76.133835,99.323738 62.533344,107.192886
	C55.972710,110.988815 49.183651,114.492638 42.195831,117.403214
	C38.825035,118.807220 34.744720,118.940331 31.006544,118.843521
	C29.193884,118.796577 27.333782,117.009750 25.754023,115.698715
	C25.536928,115.518547 26.975576,112.473381 27.386696,112.533684
	C37.037689,113.949356 44.676575,108.904106 52.713917,105.015205
	C69.126648,97.073837 85.595200,89.247856 102.474442,81.712585
	C102.943115,82.377045 102.978119,82.703278 103.013130,83.029503
z"/>
<path fill="#383130" opacity="1.000000" stroke="none"
	d="
M183.107605,265.081482
	C174.908966,261.726105 172.799194,254.475922 170.742706,247.319702
	C170.045349,244.893097 170.184280,242.226151 169.800446,238.190414
	C175.096466,240.259750 180.017273,241.506744 184.175201,244.017242
	C187.607819,246.089813 190.785721,249.266861 192.849548,252.693481
	C194.323685,255.141022 194.902283,259.275757 193.859573,261.833923
	C192.107208,266.133179 187.613052,265.990265 183.107605,265.081482
z"/>
<path fill="#3E3736" opacity="1.000000" stroke="none"
	d="
M802.887207,120.390198
	C801.394775,114.785393 799.973328,109.589355 798.551880,104.393326
	C798.935181,104.157776 799.318542,103.922234 799.701843,103.686684
	C801.795105,106.275124 804.155579,108.693634 805.930847,111.484398
	C810.916138,119.321442 811.150818,128.598404 813.210022,137.309036
	C813.455627,138.348007 812.366638,140.465805 811.424255,140.816986
	C810.391846,141.201752 808.435608,140.482925 807.561707,139.584167
	C806.358643,138.346939 805.365112,136.572647 805.036926,134.881882
	C804.133728,130.228394 803.623718,125.498589 802.887207,120.390198
z"/>
<path fill="#545251" opacity="1.000000" stroke="none"
	d="
M193.574707,136.944504
	C193.985718,137.516739 194.027206,138.142700 194.131363,139.235016
	C190.440201,141.835632 186.963165,144.925232 181.948135,142.951904
	C185.700470,140.967361 189.452820,138.982803 193.574707,136.944504
z"/>
<path fill="#545251" opacity="1.000000" stroke="none"
	d="
M35.499413,296.845734
	C36.035103,297.015076 36.282425,297.373169 36.814243,297.894775
	C34.466309,301.152313 31.833874,304.246338 29.201439,307.340332
	C28.664757,306.883636 28.128073,306.426910 27.591391,305.970184
	C30.131273,302.991608 32.671154,300.013031 35.499413,296.845734
z"/>
<path fill="#545251" opacity="1.000000" stroke="none"
	d="
M103.380173,82.997635
	C102.978119,82.703278 102.943115,82.377045 102.833008,81.564415
	C104.368309,80.270546 105.978706,79.463081 107.589111,78.655609
	C107.846458,79.062271 108.103813,79.468933 108.361168,79.875587
	C106.823181,80.905647 105.285202,81.935699 103.380173,82.997635
z"/>
<path fill="#FAFAFA" opacity="1.000000" stroke="none"
	d="
M96.402466,174.433853
	C100.397102,163.990845 104.171089,153.881348 108.198692,143.873917
	C108.891113,142.153458 110.378136,140.335312 111.986374,139.474350
	C118.397385,136.042221 125.001434,132.970673 132.407791,129.336960
	C133.043915,131.789764 133.717682,134.048416 134.209229,136.346054
	C135.744049,143.520233 138.591415,146.336182 144.060852,145.960495
	C148.457275,145.658508 151.275543,142.490616 150.059647,138.301208
	C148.775848,133.877792 146.713730,129.668961 144.845383,125.430870
	C143.788956,123.034508 143.308105,120.877388 146.172729,119.542336
	C154.439987,115.689369 162.734940,111.895088 171.051758,108.150482
	C171.715759,107.851509 172.631241,108.111061 174.256165,108.111061
	C173.624878,110.309875 173.383163,112.233574 172.556137,113.859573
	C166.457886,125.849510 160.336288,137.830185 153.976776,149.682159
	C152.856812,151.769379 150.742569,153.433823 148.825287,154.965240
	C131.057190,169.157257 113.245316,183.294678 95.404503,197.395248
	C93.278427,199.075607 90.903435,200.440979 88.643814,201.952362
	C88.181862,201.613510 87.719917,201.274643 87.257965,200.935791
	C90.261154,192.224472 93.264343,183.513168 96.402466,174.433853
z"/>
<path fill="#F5F5F4" opacity="1.000000" stroke="none"
	d="
M908.763733,130.753052
	C904.576477,132.349854 900.750610,133.800995 896.924805,135.252136
	C896.498352,134.907318 896.071899,134.562500 895.645447,134.217682
	C897.378235,131.316376 898.418396,127.009857 900.963013,125.755547
	C912.364990,120.135155 924.178284,115.343346 935.900085,110.387245
	C936.957825,109.939987 938.615967,110.083420 939.649597,110.619286
	C940.928406,111.282188 942.585327,112.557442 942.718811,113.723763
	C942.862793,114.982040 941.777405,117.010612 940.632019,117.674362
	C936.368225,120.145309 931.982849,122.503403 927.412170,124.323967
	C921.431091,126.706306 915.231018,128.538528 908.763733,130.753052
z"/>
<path fill="#F5F5F4" opacity="1.000000" stroke="none"
	d="
M897.232788,119.142868
	C895.729370,120.184166 894.417419,120.874863 893.182373,121.683098
	C889.998413,123.766685 888.078674,122.830444 886.796997,119.379379
	C886.057007,117.386871 884.587219,115.658699 883.897827,113.655975
	C883.210693,111.659691 882.197998,108.056198 882.882446,107.625061
	C885.054504,106.256912 888.004272,105.353813 890.556396,105.547707
	C893.969055,105.806976 897.290894,107.262161 901.498230,108.440964
	C900.267395,111.611778 898.863281,115.228798 897.232788,119.142868
z"/>
<path fill="#F3F2F1" opacity="1.000000" stroke="none"
	d="
M872.479370,111.210571
	C879.526794,109.223854 879.922424,109.437088 882.165710,116.193214
	C882.426147,116.977699 882.645142,117.775841 882.889771,118.565666
	C884.783936,124.681320 884.784424,124.681175 877.939331,127.095650
	C880.356140,118.945602 872.554260,117.784904 868.683411,113.275269
	C869.975281,112.523491 871.037170,111.905540 872.479370,111.210571
z"/>
<path fill="#F5F5F4" opacity="1.000000" stroke="none"
	d="
M743.121521,352.160950
	C742.825623,362.537872 737.546509,366.501526 726.641724,364.758698
	C726.641724,357.056946 726.641724,349.313507 726.641724,341.587494
	C735.654053,339.087524 741.686584,342.828674 743.121521,352.160950
z"/>
<path fill="#F3F2F1" opacity="1.000000" stroke="none"
	d="
M165.965302,367.021973
	C164.019684,367.021973 162.542145,367.021973 160.282349,367.021973
	C162.269287,360.530853 164.122055,354.478058 166.383102,347.091492
	C168.887482,354.331512 170.970856,360.354401 173.277222,367.021942
	C170.600906,367.021942 168.517151,367.021942 165.965302,367.021973
z"/>
</svg>
