<svg xmlns="http://www.w3.org/2000/svg" width="1024" height="1024" viewBox="0 0 1024 1024">
  <defs>
    <linearGradient id="bg" x1="0" y1="0" x2="1" y2="1">
      <stop offset="0" stop-color="#0F5E47"/>
      <stop offset="1" stop-color="#0B3D31"/>
    </linearGradient>
    <linearGradient id="shine" x1="0" y1="0" x2="0" y2="1">
      <stop offset="0" stop-color="#FFFFFF" stop-opacity="0.16"/>
      <stop offset="1" stop-color="#FFFFFF" stop-opacity="0"/>
    </linearGradient>
  </defs>

  <rect x="64" y="64" width="896" height="896" rx="216" fill="url(#bg)"/>

  <path d="M144 336C256 264 376 256 488 328C600 400 720 416 880 328" fill="none" stroke="#CFE7DD" stroke-width="18" stroke-linecap="round" opacity="0.12"/>
  <path d="M144 432C280 352 400 360 520 432C640 504 752 512 880 432" fill="none" stroke="#CFE7DD" stroke-width="16" stroke-linecap="round" opacity="0.10"/>
  <path d="M144 540C296 468 424 468 552 540C680 612 784 612 880 540" fill="none" stroke="#CFE7DD" stroke-width="14" stroke-linecap="round" opacity="0.08"/>

  <rect x="120" y="120" width="784" height="784" rx="192" fill="none" stroke="#D6B46A" stroke-width="20" opacity="0.92"/>

  <path d="M320 724V476C320 382 392 328 512 328C632 328 704 382 704 476V724" fill="none" stroke="#D6B46A" stroke-width="34" stroke-linecap="round" stroke-linejoin="round"/>
  <path d="M300 724H724" fill="none" stroke="#D6B46A" stroke-width="34" stroke-linecap="round"/>
  <path d="M392 724V560" fill="none" stroke="#D6B46A" stroke-width="26" stroke-linecap="round" opacity="0.9"/>
  <path d="M632 724V560" fill="none" stroke="#D6B46A" stroke-width="26" stroke-linecap="round" opacity="0.9"/>

  <path d="M376 796H648" fill="none" stroke="#D6B46A" stroke-width="26" stroke-linecap="round" opacity="0.95"/>
  <path d="M416 848H608" fill="none" stroke="#D6B46A" stroke-width="22" stroke-linecap="round" opacity="0.85"/>

  <path d="M512 216C452 244 424 304 448 352C504 344 560 304 592 252C566 222 538 206 512 216Z" fill="#E8F6EF" opacity="0.92"/>
  <path d="M520 240C504 280 492 316 486 340" fill="none" stroke="#0B3D31" stroke-width="12" stroke-linecap="round" opacity="0.22"/>

  <path d="M120 240C256 144 392 120 520 176C648 232 760 232 904 160V232C904 184 864 144 816 144H208C160 144 120 184 120 232Z" fill="url(#shine)" opacity="0.8"/>
</svg>

